# MagicaVoxel @ Ephtracy

# group
o 

# material
mtllib corn.mtl
usemtl palette

# normals
vn -1 0 0
vn 1 0 0
vn 0 0 1
vn 0 0 -1
vn 0 -1 0
vn 0 1 0

# texcoords
vt 0.00585938 0.5
vt 0.0136719 0.5

# verts
v 0 2.2 -0.3
v 0 2.2 -0.4
v 0 2.3 -0.3
v 0 2.3 -0.4
v 0 2.4 -0.3
v 0 2.4 -0.4
v 0.1 2.1 -0.3
v 0.1 2.1 -0.4
v 0.1 2.2 -0.2
v 0.1 2.2 -0.3
v 0.1 2.2 -0.4
v 0.1 2.2 -0.5
v 0.1 2.3 -0.3
v 0.1 2.3 -0.4
v 0.1 2.3 -0.5
v 0.1 2.4 -0.2
v 0.1 2.4 -0.3
v 0.1 2.4 -0.4
v 0.1 2.4 -0.5
v 0.1 2.6 -0.3
v 0.1 2.6 -0.4
v 0.2 2.1 -0.1
v 0.2 2.1 -0.3
v 0.2 2.1 -0.4
v 0.2 2.1 -0.6
v 0.2 2.2 -0.2
v 0.2 2.2 -0.3
v 0.2 2.2 -0.4
v 0.2 2.2 -0.5
v 0.2 2.3 -0.1
v 0.2 2.3 -0.2
v 0.2 2.3 -0.5
v 0.2 2.4 -0.2
v 0.2 2.4 -0.3
v 0.2 2.4 -0.4
v 0.2 2.4 -0.5
v 0.2 2.4 -0.6
v 0.2 2.5 -0.1
v 0.2 2.5 -0.3
v 0.2 2.5 -0.4
v 0.2 2.5 -0.6
v 0.2 2.6 -0.3
v 0.2 2.6 -0.4
v 0.2 2.7 -0.3
v 0.2 2.7 -0.4
v 0.3 2 -0.2
v 0.3 2 -0.5
v 0.3 2.1 -0.2
v 0.3 2.1 -0.5
v 0.3 2.2 0
v 0.3 2.2 -0.1
v 0.3 2.2 -0.6
v 0.3 2.2 -0.7
v 0.3 2.3 0
v 0.3 2.3 -0.1
v 0.3 2.3 -0.6
v 0.3 2.3 -0.7
v 0.3 2.4 0
v 0.3 2.4 -0.1
v 0.3 2.4 -0.6
v 0.3 2.4 -0.7
v 0.3 2.5 -0.2
v 0.3 2.5 -0.3
v 0.3 2.5 -0.4
v 0.3 2.5 -0.5
v 0.3 2.7 -0.2
v 0.3 2.7 -0.3
v 0.3 2.7 -0.4
v 0.3 2.7 -0.5
v 0.3 2.8 -0.3
v 0.3 2.8 -0.4
v 0.6 2 -0.2
v 0.6 2 -0.5
v 0.6 2.1 -0.2
v 0.6 2.1 -0.5
v 0.6 2.2 0
v 0.6 2.2 -0.1
v 0.6 2.2 -0.6
v 0.6 2.2 -0.7
v 0.6 2.3 -0.1
v 0.6 2.3 -0.6
v 0.6 2.3 -0.7
v 0.6 2.4 0
v 0.6 2.4 -0.1
v 0.6 2.4 -0.6
v 0.6 2.4 -0.7
v 0.6 2.5 -0.2
v 0.6 2.5 -0.3
v 0.6 2.5 -0.4
v 0.6 2.5 -0.5
v 0.6 2.7 -0.2
v 0.6 2.7 -0.3
v 0.6 2.7 -0.4
v 0.6 2.7 -0.5
v 0.6 2.8 -0.3
v 0.6 2.8 -0.4
v 0.7 2.1 -0.1
v 0.7 2.1 -0.3
v 0.7 2.1 -0.4
v 0.7 2.1 -0.6
v 0.7 2.2 -0.2
v 0.7 2.2 -0.3
v 0.7 2.2 -0.4
v 0.7 2.2 -0.5
v 0.7 2.3 -0.1
v 0.7 2.3 -0.2
v 0.7 2.3 -0.5
v 0.7 2.3 -0.6
v 0.7 2.4 -0.2
v 0.7 2.4 -0.3
v 0.7 2.4 -0.4
v 0.7 2.4 -0.5
v 0.7 2.5 -0.1
v 0.7 2.5 -0.3
v 0.7 2.5 -0.4
v 0.7 2.5 -0.6
v 0.7 2.6 -0.3
v 0.7 2.6 -0.4
v 0.7 2.7 -0.3
v 0.7 2.7 -0.4
v 0.8 2.1 -0.3
v 0.8 2.1 -0.4
v 0.8 2.2 -0.2
v 0.8 2.2 -0.3
v 0.8 2.2 -0.4
v 0.8 2.2 -0.5
v 0.8 2.3 -0.3
v 0.8 2.3 -0.4
v 0.8 2.4 -0.2
v 0.8 2.4 -0.3
v 0.8 2.4 -0.4
v 0.8 2.4 -0.5
v 0.8 2.6 -0.3
v 0.8 2.6 -0.4
v 0.9 2.2 -0.3
v 0.9 2.2 -0.4
v 0.9 2.3 -0.3
v 0.9 2.3 -0.4
v 0.9 2.4 -0.3
v 0.9 2.4 -0.4
v 0.3 2.2 0
v 0.3 2.3 0
v 0.3 2.4 0
v 0.5 2.3 0
v 0.5 2.4 0
v 0.6 2.2 0
v 0.6 2.4 0
v 0.2 2.1 -0.1
v 0.2 2.3 -0.1
v 0.2 2.5 -0.1
v 0.3 2.2 -0.1
v 0.3 2.3 -0.1
v 0.3 2.4 -0.1
v 0.5 2.4 -0.1
v 0.6 2.2 -0.1
v 0.6 2.3 -0.1
v 0.6 2.4 -0.1
v 0.7 2.1 -0.1
v 0.7 2.3 -0.1
v 0.7 2.5 -0.1
v 0.1 2.2 -0.2
v 0.1 2.4 -0.2
v 0.2 2.2 -0.2
v 0.2 2.3 -0.2
v 0.2 2.4 -0.2
v 0.3 2 -0.2
v 0.3 2.1 -0.2
v 0.3 2.5 -0.2
v 0.3 2.7 -0.2
v 0.6 2 -0.2
v 0.6 2.1 -0.2
v 0.6 2.5 -0.2
v 0.6 2.7 -0.2
v 0.7 2.2 -0.2
v 0.7 2.3 -0.2
v 0.7 2.4 -0.2
v 0.8 2.2 -0.2
v 0.8 2.4 -0.2
v 0 2.2 -0.3
v 0 2.3 -0.3
v 0 2.4 -0.3
v 0.1 2.1 -0.3
v 0.1 2.2 -0.3
v 0.1 2.3 -0.3
v 0.1 2.4 -0.3
v 0.1 2.6 -0.3
v 0.2 2.1 -0.3
v 0.2 2.2 -0.3
v 0.2 2.4 -0.3
v 0.2 2.5 -0.3
v 0.2 2.6 -0.3
v 0.2 2.7 -0.3
v 0.3 2.5 -0.3
v 0.3 2.7 -0.3
v 0.3 2.8 -0.3
v 0.6 2.5 -0.3
v 0.6 2.7 -0.3
v 0.6 2.8 -0.3
v 0.7 2.1 -0.3
v 0.7 2.2 -0.3
v 0.7 2.4 -0.3
v 0.7 2.5 -0.3
v 0.7 2.6 -0.3
v 0.7 2.7 -0.3
v 0.8 2.1 -0.3
v 0.8 2.2 -0.3
v 0.8 2.3 -0.3
v 0.8 2.4 -0.3
v 0.8 2.6 -0.3
v 0.9 2.2 -0.3
v 0.9 2.3 -0.3
v 0.9 2.4 -0.3
v 0 2.2 -0.4
v 0 2.3 -0.4
v 0 2.4 -0.4
v 0.1 2.1 -0.4
v 0.1 2.2 -0.4
v 0.1 2.3 -0.4
v 0.1 2.4 -0.4
v 0.1 2.6 -0.4
v 0.2 2.1 -0.4
v 0.2 2.2 -0.4
v 0.2 2.4 -0.4
v 0.2 2.5 -0.4
v 0.2 2.6 -0.4
v 0.2 2.7 -0.4
v 0.3 2.5 -0.4
v 0.3 2.7 -0.4
v 0.3 2.8 -0.4
v 0.6 2.5 -0.4
v 0.6 2.7 -0.4
v 0.6 2.8 -0.4
v 0.7 2.1 -0.4
v 0.7 2.2 -0.4
v 0.7 2.4 -0.4
v 0.7 2.5 -0.4
v 0.7 2.6 -0.4
v 0.7 2.7 -0.4
v 0.8 2.1 -0.4
v 0.8 2.2 -0.4
v 0.8 2.3 -0.4
v 0.8 2.4 -0.4
v 0.8 2.6 -0.4
v 0.9 2.2 -0.4
v 0.9 2.3 -0.4
v 0.9 2.4 -0.4
v 0.1 2.2 -0.5
v 0.1 2.3 -0.5
v 0.1 2.4 -0.5
v 0.2 2.2 -0.5
v 0.2 2.3 -0.5
v 0.2 2.4 -0.5
v 0.3 2 -0.5
v 0.3 2.1 -0.5
v 0.3 2.5 -0.5
v 0.3 2.7 -0.5
v 0.6 2 -0.5
v 0.6 2.1 -0.5
v 0.6 2.5 -0.5
v 0.6 2.7 -0.5
v 0.7 2.2 -0.5
v 0.7 2.3 -0.5
v 0.7 2.4 -0.5
v 0.8 2.2 -0.5
v 0.8 2.4 -0.5
v 0.2 2.1 -0.6
v 0.2 2.4 -0.6
v 0.2 2.5 -0.6
v 0.3 2.2 -0.6
v 0.3 2.3 -0.6
v 0.3 2.4 -0.6
v 0.6 2.2 -0.6
v 0.6 2.3 -0.6
v 0.6 2.4 -0.6
v 0.7 2.1 -0.6
v 0.7 2.3 -0.6
v 0.7 2.5 -0.6
v 0.3 2.2 -0.7
v 0.3 2.3 -0.7
v 0.3 2.4 -0.7
v 0.6 2.2 -0.7
v 0.6 2.3 -0.7
v 0.6 2.4 -0.7
v 0.3 2 -0.2
v 0.6 2 -0.2
v 0.3 2 -0.5
v 0.6 2 -0.5
v 0.2 2.1 -0.1
v 0.7 2.1 -0.1
v 0.3 2.1 -0.2
v 0.6 2.1 -0.2
v 0.1 2.1 -0.3
v 0.2 2.1 -0.3
v 0.7 2.1 -0.3
v 0.8 2.1 -0.3
v 0.1 2.1 -0.4
v 0.2 2.1 -0.4
v 0.7 2.1 -0.4
v 0.8 2.1 -0.4
v 0.3 2.1 -0.5
v 0.6 2.1 -0.5
v 0.2 2.1 -0.6
v 0.7 2.1 -0.6
v 0.3 2.2 0
v 0.6 2.2 0
v 0.3 2.2 -0.1
v 0.6 2.2 -0.1
v 0.1 2.2 -0.2
v 0.2 2.2 -0.2
v 0.7 2.2 -0.2
v 0.8 2.2 -0.2
v 0 2.2 -0.3
v 0.1 2.2 -0.3
v 0.2 2.2 -0.3
v 0.7 2.2 -0.3
v 0.8 2.2 -0.3
v 0.9 2.2 -0.3
v 0 2.2 -0.4
v 0.1 2.2 -0.4
v 0.2 2.2 -0.4
v 0.7 2.2 -0.4
v 0.8 2.2 -0.4
v 0.9 2.2 -0.4
v 0.1 2.2 -0.5
v 0.2 2.2 -0.5
v 0.7 2.2 -0.5
v 0.8 2.2 -0.5
v 0.3 2.2 -0.6
v 0.6 2.2 -0.6
v 0.3 2.2 -0.7
v 0.6 2.2 -0.7
v 0.3 2.4 0
v 0.5 2.4 0
v 0.6 2.4 0
v 0.3 2.4 -0.1
v 0.5 2.4 -0.1
v 0.6 2.4 -0.1
v 0.1 2.4 -0.2
v 0.2 2.4 -0.2
v 0.7 2.4 -0.2
v 0.8 2.4 -0.2
v 0 2.4 -0.3
v 0.1 2.4 -0.3
v 0.2 2.4 -0.3
v 0.7 2.4 -0.3
v 0.8 2.4 -0.3
v 0.9 2.4 -0.3
v 0 2.4 -0.4
v 0.1 2.4 -0.4
v 0.2 2.4 -0.4
v 0.7 2.4 -0.4
v 0.8 2.4 -0.4
v 0.9 2.4 -0.4
v 0.1 2.4 -0.5
v 0.2 2.4 -0.5
v 0.7 2.4 -0.5
v 0.8 2.4 -0.5
v 0.3 2.4 -0.6
v 0.6 2.4 -0.6
v 0.3 2.4 -0.7
v 0.6 2.4 -0.7
v 0.2 2.5 -0.1
v 0.7 2.5 -0.1
v 0.3 2.5 -0.2
v 0.6 2.5 -0.2
v 0.2 2.5 -0.3
v 0.3 2.5 -0.3
v 0.6 2.5 -0.3
v 0.7 2.5 -0.3
v 0.2 2.5 -0.4
v 0.3 2.5 -0.4
v 0.6 2.5 -0.4
v 0.7 2.5 -0.4
v 0.3 2.5 -0.5
v 0.6 2.5 -0.5
v 0.2 2.5 -0.6
v 0.7 2.5 -0.6
v 0.1 2.6 -0.3
v 0.2 2.6 -0.3
v 0.7 2.6 -0.3
v 0.8 2.6 -0.3
v 0.1 2.6 -0.4
v 0.2 2.6 -0.4
v 0.7 2.6 -0.4
v 0.8 2.6 -0.4
v 0.3 2.7 -0.2
v 0.6 2.7 -0.2
v 0.2 2.7 -0.3
v 0.3 2.7 -0.3
v 0.6 2.7 -0.3
v 0.7 2.7 -0.3
v 0.2 2.7 -0.4
v 0.3 2.7 -0.4
v 0.6 2.7 -0.4
v 0.7 2.7 -0.4
v 0.3 2.7 -0.5
v 0.6 2.7 -0.5
v 0.3 2.8 -0.3
v 0.6 2.8 -0.3
v 0.3 2.8 -0.4
v 0.6 2.8 -0.4

# faces
f 3/2/1 2/2/1 1/2/1
f 4/2/1 2/2/1 3/2/1
f 5/1/1 4/1/1 3/1/1
f 6/1/1 4/1/1 5/1/1
f 10/2/1 8/2/1 7/2/1
f 11/2/1 8/2/1 10/2/1
f 13/2/1 10/2/1 9/2/1
f 14/2/1 12/2/1 11/2/1
f 15/2/1 12/2/1 14/2/1
f 16/2/1 13/2/1 9/2/1
f 17/2/1 13/2/1 16/2/1
f 18/1/1 15/1/1 14/1/1
f 19/1/1 15/1/1 18/1/1
f 20/1/1 18/1/1 17/1/1
f 21/1/1 18/1/1 20/1/1
f 26/2/1 23/2/1 22/2/1
f 27/2/1 23/2/1 26/2/1
f 28/2/1 25/2/1 24/2/1
f 29/2/1 25/2/1 28/2/1
f 30/2/1 26/2/1 22/2/1
f 31/2/1 26/2/1 30/2/1
f 32/2/1 25/2/1 29/2/1
f 33/1/1 31/1/1 30/1/1
f 36/2/1 25/2/1 32/2/1
f 37/2/1 25/2/1 36/2/1
f 38/1/1 34/1/1 33/1/1
f 38/1/1 33/1/1 30/1/1
f 39/1/1 34/1/1 38/1/1
f 40/1/1 37/1/1 36/1/1
f 40/1/1 36/1/1 35/1/1
f 41/1/1 37/1/1 40/1/1
f 44/1/1 43/1/1 42/1/1
f 45/1/1 43/1/1 44/1/1
f 48/2/1 47/2/1 46/2/1
f 49/2/1 47/2/1 48/2/1
f 54/2/1 51/2/1 50/2/1
f 55/2/1 51/2/1 54/2/1
f 56/2/1 53/2/1 52/2/1
f 57/2/1 53/2/1 56/2/1
f 58/1/1 55/1/1 54/1/1
f 59/1/1 55/1/1 58/1/1
f 60/1/1 57/1/1 56/1/1
f 61/1/1 57/1/1 60/1/1
f 66/1/1 63/1/1 62/1/1
f 67/1/1 63/1/1 66/1/1
f 68/1/1 65/1/1 64/1/1
f 69/1/1 65/1/1 68/1/1
f 70/1/1 68/1/1 67/1/1
f 71/1/1 68/1/1 70/1/1
f 72/2/2 73/2/2 74/2/2
f 74/2/2 73/2/2 75/2/2
f 76/2/2 77/2/2 80/2/2
f 78/2/2 79/2/2 81/2/2
f 81/2/2 79/2/2 82/2/2
f 76/2/2 80/2/2 83/2/2
f 83/2/2 80/2/2 84/2/2
f 81/1/2 82/1/2 85/1/2
f 85/1/2 82/1/2 86/1/2
f 87/1/2 88/1/2 91/1/2
f 91/1/2 88/1/2 92/1/2
f 89/1/2 90/1/2 93/1/2
f 93/1/2 90/1/2 94/1/2
f 92/1/2 93/1/2 95/1/2
f 95/1/2 93/1/2 96/1/2
f 97/2/2 98/2/2 101/2/2
f 101/2/2 98/2/2 102/2/2
f 99/2/2 100/2/2 103/2/2
f 103/2/2 100/2/2 104/2/2
f 97/2/2 101/2/2 105/2/2
f 105/2/2 101/2/2 106/2/2
f 104/2/2 100/2/2 107/2/2
f 107/2/2 100/2/2 108/2/2
f 105/1/2 106/1/2 109/1/2
f 107/1/2 108/1/2 112/1/2
f 109/1/2 110/1/2 113/1/2
f 105/1/2 109/1/2 113/1/2
f 113/1/2 110/1/2 114/1/2
f 111/1/2 112/1/2 115/1/2
f 112/1/2 108/1/2 116/1/2
f 115/1/2 112/1/2 116/1/2
f 117/1/2 118/1/2 119/1/2
f 119/1/2 118/1/2 120/1/2
f 121/2/2 122/2/2 124/2/2
f 124/2/2 122/2/2 125/2/2
f 123/2/2 124/2/2 127/2/2
f 125/2/2 126/2/2 128/2/2
f 123/2/2 127/2/2 129/2/2
f 129/2/2 127/2/2 130/2/2
f 128/2/2 126/2/2 131/2/2
f 131/2/2 126/2/2 132/2/2
f 130/1/2 131/1/2 133/1/2
f 133/1/2 131/1/2 134/1/2
f 135/2/2 136/2/2 137/2/2
f 137/2/2 136/2/2 138/2/2
f 137/1/2 138/1/2 139/1/2
f 139/1/2 138/1/2 140/1/2
f 144/2/3 142/2/3 141/2/3
f 144/1/3 143/1/3 142/1/3
f 145/1/3 143/1/3 144/1/3
f 146/2/3 144/2/3 141/2/3
f 146/2/3 145/2/3 144/2/3
f 147/2/3 145/2/3 146/2/3
f 151/2/3 149/2/3 148/2/3
f 152/1/3 150/1/3 149/1/3
f 152/2/3 149/2/3 151/2/3
f 153/1/3 150/1/3 152/1/3
f 154/1/3 150/1/3 153/1/3
f 155/2/3 151/2/3 148/2/3
f 157/1/3 150/1/3 154/1/3
f 158/2/3 156/2/3 155/2/3
f 158/2/3 155/2/3 148/2/3
f 159/1/3 157/1/3 156/1/3
f 159/2/3 156/2/3 158/2/3
f 160/1/3 150/1/3 157/1/3
f 160/1/3 157/1/3 159/1/3
f 163/2/3 162/2/3 161/2/3
f 164/2/3 162/2/3 163/2/3
f 165/2/3 162/2/3 164/2/3
f 170/2/3 167/2/3 166/2/3
f 171/2/3 167/2/3 170/2/3
f 172/1/3 169/1/3 168/1/3
f 173/1/3 169/1/3 172/1/3
f 177/2/3 175/2/3 174/2/3
f 177/2/3 176/2/3 175/2/3
f 178/2/3 176/2/3 177/2/3
f 183/2/3 180/2/3 179/2/3
f 184/1/3 181/1/3 180/1/3
f 184/2/3 180/2/3 183/2/3
f 185/1/3 181/1/3 184/1/3
f 187/2/3 183/2/3 182/2/3
f 188/2/3 183/2/3 187/2/3
f 189/1/3 186/1/3 185/1/3
f 190/1/3 186/1/3 189/1/3
f 191/1/3 186/1/3 190/1/3
f 193/1/3 192/1/3 191/1/3
f 193/1/3 191/1/3 190/1/3
f 194/1/3 192/1/3 193/1/3
f 197/1/3 195/1/3 194/1/3
f 198/1/3 195/1/3 197/1/3
f 202/1/3 197/1/3 196/1/3
f 203/1/3 197/1/3 202/1/3
f 204/1/3 197/1/3 203/1/3
f 205/2/3 200/2/3 199/2/3
f 206/2/3 200/2/3 205/2/3
f 208/1/3 202/1/3 201/1/3
f 208/1/3 203/1/3 202/1/3
f 209/1/3 203/1/3 208/1/3
f 210/2/3 207/2/3 206/2/3
f 211/1/3 208/1/3 207/1/3
f 211/2/3 207/2/3 210/2/3
f 212/1/3 208/1/3 211/1/3
f 213/2/4 214/2/4 217/2/4
f 214/1/4 215/1/4 218/1/4
f 217/2/4 214/2/4 218/2/4
f 218/1/4 215/1/4 219/1/4
f 216/2/4 217/2/4 221/2/4
f 221/2/4 217/2/4 222/2/4
f 219/1/4 220/1/4 223/1/4
f 223/1/4 220/1/4 224/1/4
f 224/1/4 220/1/4 225/1/4
f 225/1/4 226/1/4 227/1/4
f 224/1/4 225/1/4 227/1/4
f 227/1/4 226/1/4 228/1/4
f 228/1/4 229/1/4 231/1/4
f 231/1/4 229/1/4 232/1/4
f 230/1/4 231/1/4 236/1/4
f 236/1/4 231/1/4 237/1/4
f 237/1/4 231/1/4 238/1/4
f 233/2/4 234/2/4 239/2/4
f 239/2/4 234/2/4 240/2/4
f 235/1/4 236/1/4 242/1/4
f 236/1/4 237/1/4 242/1/4
f 242/1/4 237/1/4 243/1/4
f 240/2/4 241/2/4 244/2/4
f 241/1/4 242/1/4 245/1/4
f 244/2/4 241/2/4 245/2/4
f 245/1/4 242/1/4 246/1/4
f 247/2/4 248/2/4 250/2/4
f 248/1/4 249/1/4 251/1/4
f 250/2/4 248/2/4 251/2/4
f 251/1/4 249/1/4 252/1/4
f 253/2/4 254/2/4 257/2/4
f 257/2/4 254/2/4 258/2/4
f 255/1/4 256/1/4 259/1/4
f 259/1/4 256/1/4 260/1/4
f 261/2/4 262/2/4 264/2/4
f 262/2/4 263/2/4 264/2/4
f 264/2/4 263/2/4 265/2/4
f 266/2/4 267/2/4 269/2/4
f 269/2/4 267/2/4 270/2/4
f 267/1/4 268/1/4 271/1/4
f 270/2/4 267/2/4 271/2/4
f 266/2/4 269/2/4 272/2/4
f 271/1/4 268/1/4 274/1/4
f 272/2/4 273/2/4 275/2/4
f 266/2/4 272/2/4 275/2/4
f 273/1/4 274/1/4 276/1/4
f 275/2/4 273/2/4 276/2/4
f 274/1/4 268/1/4 277/1/4
f 276/1/4 274/1/4 277/1/4
f 278/2/4 279/2/4 281/2/4
f 279/1/4 280/1/4 282/1/4
f 281/2/4 279/2/4 282/2/4
f 282/1/4 280/1/4 283/1/4
f 286/2/5 285/2/5 284/2/5
f 287/2/5 285/2/5 286/2/5
f 290/2/5 289/2/5 288/2/5
f 291/2/5 289/2/5 290/2/5
f 293/2/5 290/2/5 288/2/5
f 294/2/5 289/2/5 291/2/5
f 296/2/5 293/2/5 292/2/5
f 297/2/5 290/2/5 293/2/5
f 297/2/5 293/2/5 296/2/5
f 298/2/5 295/2/5 294/2/5
f 298/2/5 294/2/5 291/2/5
f 299/2/5 295/2/5 298/2/5
f 300/2/5 290/2/5 297/2/5
f 301/2/5 298/2/5 291/2/5
f 302/2/5 300/2/5 297/2/5
f 302/2/5 301/2/5 300/2/5
f 303/2/5 298/2/5 301/2/5
f 303/2/5 301/2/5 302/2/5
f 306/2/5 305/2/5 304/2/5
f 307/2/5 305/2/5 306/2/5
f 313/2/5 309/2/5 308/2/5
f 314/2/5 309/2/5 313/2/5
f 315/2/5 311/2/5 310/2/5
f 316/2/5 311/2/5 315/2/5
f 318/2/5 313/2/5 312/2/5
f 319/2/5 313/2/5 318/2/5
f 322/2/5 317/2/5 316/2/5
f 323/2/5 317/2/5 322/2/5
f 324/2/5 320/2/5 319/2/5
f 325/2/5 320/2/5 324/2/5
f 326/2/5 322/2/5 321/2/5
f 327/2/5 322/2/5 326/2/5
f 330/2/5 329/2/5 328/2/5
f 331/2/5 329/2/5 330/2/5
f 332/1/6 333/1/6 335/1/6
f 333/2/6 334/2/6 336/2/6
f 335/1/6 333/1/6 336/1/6
f 336/2/6 334/2/6 337/2/6
f 338/2/6 339/2/6 343/2/6
f 343/2/6 339/2/6 344/2/6
f 340/2/6 341/2/6 345/2/6
f 345/2/6 341/2/6 346/2/6
f 342/1/6 343/1/6 348/1/6
f 348/1/6 343/1/6 349/1/6
f 346/1/6 347/1/6 352/1/6
f 352/1/6 347/1/6 353/1/6
f 349/1/6 350/1/6 354/1/6
f 354/1/6 350/1/6 355/1/6
f 351/2/6 352/2/6 356/2/6
f 356/2/6 352/2/6 357/2/6
f 358/1/6 359/1/6 360/1/6
f 360/1/6 359/1/6 361/1/6
f 362/1/6 363/1/6 364/1/6
f 364/1/6 363/1/6 365/1/6
f 362/1/6 364/1/6 366/1/6
f 366/1/6 364/1/6 367/1/6
f 365/1/6 363/1/6 368/1/6
f 368/1/6 363/1/6 369/1/6
f 370/1/6 371/1/6 374/1/6
f 372/1/6 373/1/6 375/1/6
f 370/1/6 374/1/6 376/1/6
f 374/1/6 375/1/6 376/1/6
f 375/1/6 373/1/6 377/1/6
f 376/1/6 375/1/6 377/1/6
f 378/1/6 379/1/6 382/1/6
f 382/1/6 379/1/6 383/1/6
f 380/1/6 381/1/6 384/1/6
f 384/1/6 381/1/6 385/1/6
f 386/1/6 387/1/6 389/1/6
f 389/1/6 387/1/6 390/1/6
f 388/1/6 389/1/6 392/1/6
f 392/1/6 389/1/6 393/1/6
f 390/1/6 391/1/6 394/1/6
f 394/1/6 391/1/6 395/1/6
f 393/1/6 394/1/6 396/1/6
f 396/1/6 394/1/6 397/1/6
f 398/1/6 399/1/6 400/1/6
f 400/1/6 399/1/6 401/1/6
