# MagicaVoxel @ Ephtracy

# group
o 

# material
mtllib flowerwindow.mtl
usemtl palette

# normals
vn -1 0 0
vn 1 0 0
vn 0 0 1
vn 0 0 -1
vn 0 -1 0
vn 0 1 0

# texcoords
vt 0.0136719 0.5
vt 0.0527344 0.5
vt 0.138672 0.5
vt 0.142578 0.5
vt 0.431641 0.5

# verts
v 0 2 0
v 0 2 -0.4
v 0 4.4 0
v 0 4.4 -0.4
v 0.1 2.1 -0.4
v 0.1 2.1 -0.5
v 0.1 4.3 -0.4
v 0.1 4.3 -0.5
v 0.2 2.1 -0.1
v 0.2 2.1 -0.3
v 0.2 2.5 -0.1
v 0.2 2.5 -0.3
v 0.3 2.5 -0.2
v 0.3 2.5 -0.3
v 0.3 2.7 -0.2
v 0.3 2.7 -0.3
v 0.4 2.7 -0.2
v 0.4 2.7 -0.3
v 0.4 2.8 -0.2
v 0.4 2.8 -0.3
v 0.5 2.6 -0.2
v 0.5 2.6 -0.3
v 0.5 2.7 -0.1
v 0.5 2.7 -0.2
v 0.5 2.7 -0.3
v 0.5 2.7 -0.4
v 0.5 2.8 -0.2
v 0.5 2.8 -0.3
v 0.5 2.9 -0.1
v 0.5 2.9 -0.2
v 0.5 2.9 -0.3
v 0.5 2.9 -0.4
v 0.5 3 -0.2
v 0.5 3 -0.3
v 1.5 2.1 0
v 1.5 2.1 -0.4
v 1.5 4.3 0
v 1.5 4.3 -0.4
v 0.1 2.1 0
v 0.1 2.1 -0.4
v 0.1 4.3 0
v 0.1 4.3 -0.4
v 0.4 2.1 -0.1
v 0.4 2.1 -0.3
v 0.4 2.5 -0.1
v 0.4 2.5 -0.2
v 0.4 2.5 -0.3
v 0.4 2.7 -0.2
v 0.4 2.7 -0.3
v 0.6 2.6 -0.2
v 0.6 2.6 -0.3
v 0.6 2.7 -0.1
v 0.6 2.7 -0.2
v 0.6 2.7 -0.3
v 0.6 2.7 -0.4
v 0.6 2.9 -0.1
v 0.6 2.9 -0.2
v 0.6 2.9 -0.3
v 0.6 2.9 -0.4
v 0.6 3 -0.2
v 0.6 3 -0.3
v 0.7 2.7 -0.2
v 0.7 2.7 -0.3
v 0.7 2.9 -0.2
v 0.7 2.9 -0.3
v 1.5 2.1 -0.4
v 1.5 2.1 -0.5
v 1.5 4.3 -0.4
v 1.5 4.3 -0.5
v 1.6 2 0
v 1.6 2 -0.4
v 1.6 4.4 0
v 1.6 4.4 -0.4
v 0 2 0
v 0 4.4 0
v 0.1 2.1 0
v 0.1 4.3 0
v 1.5 2.1 0
v 1.5 4.3 0
v 1.6 2 0
v 1.6 4.4 0
v 0.2 2.1 -0.1
v 0.2 2.5 -0.1
v 0.4 2.1 -0.1
v 0.4 2.5 -0.1
v 0.5 2.7 -0.1
v 0.5 2.9 -0.1
v 0.6 2.7 -0.1
v 0.6 2.9 -0.1
v 0.3 2.5 -0.2
v 0.3 2.7 -0.2
v 0.4 2.5 -0.2
v 0.4 2.7 -0.2
v 0.4 2.8 -0.2
v 0.5 2.6 -0.2
v 0.5 2.7 -0.2
v 0.5 2.8 -0.2
v 0.5 2.9 -0.2
v 0.5 3 -0.2
v 0.6 2.6 -0.2
v 0.6 2.7 -0.2
v 0.6 2.9 -0.2
v 0.6 3 -0.2
v 0.7 2.7 -0.2
v 0.7 2.9 -0.2
v 0.1 2.1 -0.4
v 0.1 4.3 -0.4
v 0.5 2.7 -0.4
v 0.5 2.9 -0.4
v 0.6 2.7 -0.4
v 0.6 2.9 -0.4
v 1.5 2.1 -0.4
v 1.5 4.3 -0.4
v 0.2 2.1 -0.3
v 0.2 2.5 -0.3
v 0.3 2.5 -0.3
v 0.3 2.7 -0.3
v 0.4 2.1 -0.3
v 0.4 2.5 -0.3
v 0.4 2.7 -0.3
v 0.4 2.8 -0.3
v 0.5 2.6 -0.3
v 0.5 2.7 -0.3
v 0.5 2.8 -0.3
v 0.5 2.9 -0.3
v 0.5 3 -0.3
v 0.6 2.6 -0.3
v 0.6 2.7 -0.3
v 0.6 2.9 -0.3
v 0.6 3 -0.3
v 0.7 2.7 -0.3
v 0.7 2.9 -0.3
v 0 2 -0.4
v 0 4.4 -0.4
v 0.1 2.1 -0.4
v 0.1 4.3 -0.4
v 1.5 2.1 -0.4
v 1.5 4.3 -0.4
v 1.6 2 -0.4
v 1.6 4.4 -0.4
v 0.1 2.1 -0.5
v 0.1 4.3 -0.5
v 1.5 2.1 -0.5
v 1.5 4.3 -0.5
v 0 2 0
v 1.6 2 0
v 0 2 -0.4
v 1.6 2 -0.4
v 0.1 2.1 -0.4
v 1.5 2.1 -0.4
v 0.1 2.1 -0.5
v 1.5 2.1 -0.5
v 0.5 2.6 -0.2
v 0.6 2.6 -0.2
v 0.5 2.6 -0.3
v 0.6 2.6 -0.3
v 0.5 2.7 -0.1
v 0.6 2.7 -0.1
v 0.4 2.7 -0.2
v 0.5 2.7 -0.2
v 0.6 2.7 -0.2
v 0.7 2.7 -0.2
v 0.4 2.7 -0.3
v 0.5 2.7 -0.3
v 0.6 2.7 -0.3
v 0.7 2.7 -0.3
v 0.5 2.7 -0.4
v 0.6 2.7 -0.4
v 0.1 4.3 0
v 1.5 4.3 0
v 0.1 4.3 -0.4
v 1.5 4.3 -0.4
v 0.1 2.1 0
v 1.5 2.1 0
v 0.2 2.1 -0.1
v 0.4 2.1 -0.1
v 0.2 2.1 -0.3
v 0.4 2.1 -0.3
v 0.1 2.1 -0.4
v 1.5 2.1 -0.4
v 0.2 2.5 -0.1
v 0.4 2.5 -0.1
v 0.3 2.5 -0.2
v 0.4 2.5 -0.2
v 0.2 2.5 -0.3
v 0.3 2.5 -0.3
v 0.3 2.7 -0.2
v 0.4 2.7 -0.2
v 0.3 2.7 -0.3
v 0.4 2.7 -0.3
v 0.4 2.8 -0.2
v 0.5 2.8 -0.2
v 0.4 2.8 -0.3
v 0.5 2.8 -0.3
v 0.5 2.9 -0.1
v 0.6 2.9 -0.1
v 0.5 2.9 -0.2
v 0.6 2.9 -0.2
v 0.7 2.9 -0.2
v 0.5 2.9 -0.3
v 0.6 2.9 -0.3
v 0.7 2.9 -0.3
v 0.5 2.9 -0.4
v 0.6 2.9 -0.4
v 0.5 3 -0.2
v 0.6 3 -0.2
v 0.5 3 -0.3
v 0.6 3 -0.3
v 0.1 4.3 -0.4
v 1.5 4.3 -0.4
v 0.1 4.3 -0.5
v 1.5 4.3 -0.5
v 0 4.4 0
v 1.6 4.4 0
v 0 4.4 -0.4
v 1.6 4.4 -0.4

# faces
f 3/3/1 2/3/1 1/3/1
f 4/3/1 2/3/1 3/3/1
f 7/4/1 6/4/1 5/4/1
f 8/4/1 6/4/1 7/4/1
f 11/2/1 10/2/1 9/2/1
f 12/2/1 10/2/1 11/2/1
f 15/5/1 14/5/1 13/5/1
f 16/5/1 14/5/1 15/5/1
f 19/5/1 18/5/1 17/5/1
f 20/5/1 18/5/1 19/5/1
f 24/1/1 22/1/1 21/1/1
f 25/1/1 22/1/1 24/1/1
f 27/1/1 24/1/1 23/1/1
f 28/1/1 26/1/1 25/1/1
f 29/1/1 27/1/1 23/1/1
f 29/1/1 28/1/1 27/1/1
f 30/1/1 28/1/1 29/1/1
f 31/1/1 26/1/1 28/1/1
f 31/1/1 28/1/1 30/1/1
f 32/1/1 26/1/1 31/1/1
f 33/1/1 31/1/1 30/1/1
f 34/1/1 31/1/1 33/1/1
f 37/3/1 36/3/1 35/3/1
f 38/3/1 36/3/1 37/3/1
f 39/3/2 40/3/2 41/3/2
f 41/3/2 40/3/2 42/3/2
f 43/2/2 44/2/2 45/2/2
f 45/2/2 44/2/2 46/2/2
f 46/2/2 44/2/2 47/2/2
f 46/5/2 47/5/2 48/5/2
f 48/5/2 47/5/2 49/5/2
f 50/1/2 51/1/2 53/1/2
f 53/1/2 51/1/2 54/1/2
f 52/1/2 53/1/2 56/1/2
f 56/1/2 53/1/2 57/1/2
f 54/1/2 55/1/2 58/1/2
f 58/1/2 55/1/2 59/1/2
f 57/1/2 58/1/2 60/1/2
f 60/1/2 58/1/2 61/1/2
f 62/1/2 63/1/2 64/1/2
f 64/1/2 63/1/2 65/1/2
f 66/4/2 67/4/2 68/4/2
f 68/4/2 67/4/2 69/4/2
f 70/3/2 71/3/2 72/3/2
f 72/3/2 71/3/2 73/3/2
f 76/3/3 75/3/3 74/3/3
f 77/3/3 75/3/3 76/3/3
f 78/3/3 76/3/3 74/3/3
f 79/3/3 75/3/3 77/3/3
f 80/3/3 78/3/3 74/3/3
f 80/3/3 79/3/3 78/3/3
f 81/3/3 75/3/3 79/3/3
f 81/3/3 79/3/3 80/3/3
f 84/2/3 83/2/3 82/2/3
f 85/2/3 83/2/3 84/2/3
f 88/1/3 87/1/3 86/1/3
f 89/1/3 87/1/3 88/1/3
f 92/5/3 91/5/3 90/5/3
f 93/5/3 91/5/3 92/5/3
f 96/5/3 94/5/3 93/5/3
f 97/5/3 94/5/3 96/5/3
f 100/1/3 96/1/3 95/1/3
f 101/1/3 96/1/3 100/1/3
f 102/1/3 99/1/3 98/1/3
f 103/1/3 99/1/3 102/1/3
f 104/1/3 102/1/3 101/1/3
f 105/1/3 102/1/3 104/1/3
f 108/4/3 107/4/3 106/4/3
f 109/4/3 107/4/3 108/4/3
f 110/4/3 108/4/3 106/4/3
f 111/4/3 107/4/3 109/4/3
f 112/4/3 110/4/3 106/4/3
f 112/4/3 111/4/3 110/4/3
f 113/4/3 107/4/3 111/4/3
f 113/4/3 111/4/3 112/4/3
f 114/2/4 115/2/4 116/2/4
f 114/2/4 116/2/4 118/2/4
f 116/5/4 117/5/4 119/5/4
f 118/2/4 116/2/4 119/2/4
f 119/5/4 117/5/4 120/5/4
f 120/5/4 121/5/4 123/5/4
f 123/5/4 121/5/4 124/5/4
f 122/1/4 123/1/4 127/1/4
f 127/1/4 123/1/4 128/1/4
f 125/1/4 126/1/4 129/1/4
f 129/1/4 126/1/4 130/1/4
f 128/1/4 129/1/4 131/1/4
f 131/1/4 129/1/4 132/1/4
f 133/3/4 134/3/4 135/3/4
f 135/3/4 134/3/4 136/3/4
f 133/3/4 135/3/4 137/3/4
f 136/3/4 134/3/4 138/3/4
f 133/3/4 137/3/4 139/3/4
f 137/3/4 138/3/4 139/3/4
f 138/3/4 134/3/4 140/3/4
f 139/3/4 138/3/4 140/3/4
f 141/4/4 142/4/4 143/4/4
f 143/4/4 142/4/4 144/4/4
f 147/3/5 146/3/5 145/3/5
f 148/3/5 146/3/5 147/3/5
f 151/4/5 150/4/5 149/4/5
f 152/4/5 150/4/5 151/4/5
f 155/1/5 154/1/5 153/1/5
f 156/1/5 154/1/5 155/1/5
f 160/1/5 158/1/5 157/1/5
f 161/1/5 158/1/5 160/1/5
f 163/5/5 160/5/5 159/5/5
f 164/5/5 160/5/5 163/5/5
f 165/1/5 162/1/5 161/1/5
f 166/1/5 162/1/5 165/1/5
f 167/1/5 165/1/5 164/1/5
f 168/1/5 165/1/5 167/1/5
f 171/3/5 170/3/5 169/3/5
f 172/3/5 170/3/5 171/3/5
f 173/3/6 174/3/6 175/3/6
f 175/3/6 174/3/6 176/3/6
f 173/3/6 175/3/6 177/3/6
f 176/3/6 174/3/6 178/3/6
f 173/3/6 177/3/6 179/3/6
f 177/3/6 178/3/6 179/3/6
f 178/3/6 174/3/6 180/3/6
f 179/3/6 178/3/6 180/3/6
f 181/2/6 182/2/6 183/2/6
f 183/2/6 182/2/6 184/2/6
f 181/2/6 183/2/6 185/2/6
f 185/2/6 183/2/6 186/2/6
f 187/5/6 188/5/6 189/5/6
f 189/5/6 188/5/6 190/5/6
f 191/5/6 192/5/6 193/5/6
f 193/5/6 192/5/6 194/5/6
f 195/1/6 196/1/6 197/1/6
f 197/1/6 196/1/6 198/1/6
f 198/1/6 199/1/6 201/1/6
f 201/1/6 199/1/6 202/1/6
f 200/1/6 201/1/6 203/1/6
f 203/1/6 201/1/6 204/1/6
f 205/1/6 206/1/6 207/1/6
f 207/1/6 206/1/6 208/1/6
f 209/4/6 210/4/6 211/4/6
f 211/4/6 210/4/6 212/4/6
f 213/3/6 214/3/6 215/3/6
f 215/3/6 214/3/6 216/3/6
